<mxfile host="65bd71144e">
    <diagram id="kWyl1npeE94PkvQ0Hgdy" name="第 1 页">
        <mxGraphModel dx="717" dy="842" grid="1" gridSize="10" guides="1" tooltips="1" connect="1" arrows="1" fold="1" page="1" pageScale="1" pageWidth="827" pageHeight="1169" background="#FFFFFF" math="0" shadow="0">
            <root>
                <mxCell id="0"/>
                <mxCell id="1" parent="0"/>
                <mxCell id="4" style="edgeStyle=none;html=1;exitX=0.5;exitY=1;exitDx=0;exitDy=0;entryX=0.5;entryY=0;entryDx=0;entryDy=0;fontSize=16;fontColor=#000;strokeColor=#000;" edge="1" parent="1" source="2" target="3">
                    <mxGeometry relative="1" as="geometry"/>
                </mxCell>
                <mxCell id="6" style="edgeStyle=none;html=1;exitX=0;exitY=0.5;exitDx=0;exitDy=0;entryX=1;entryY=0.5;entryDx=0;entryDy=0;fontSize=16;fillColor=#0050ef;strokeColor=#001DBC;fontColor=#000;" edge="1" parent="1" source="2" target="5">
                    <mxGeometry relative="1" as="geometry">
                        <Array as="points">
                            <mxPoint x="190" y="550"/>
                            <mxPoint x="160" y="550"/>
                        </Array>
                    </mxGeometry>
                </mxCell>
                <mxCell id="35" style="edgeStyle=none;html=1;exitX=1;exitY=0.5;exitDx=0;exitDy=0;entryX=0.25;entryY=1;entryDx=0;entryDy=0;fontSize=16;fillColor=#6a00ff;strokeColor=#3700CC;fontColor=#000;" edge="1" parent="1" source="2" target="34">
                    <mxGeometry relative="1" as="geometry">
                        <Array as="points">
                            <mxPoint x="490" y="650"/>
                            <mxPoint x="610" y="660"/>
                            <mxPoint x="670" y="650"/>
                            <mxPoint x="720" y="650"/>
                        </Array>
                    </mxGeometry>
                </mxCell>
                <mxCell id="52" style="edgeStyle=none;html=1;exitX=1;exitY=0.25;exitDx=0;exitDy=0;entryX=0;entryY=1;entryDx=0;entryDy=0;fontSize=16;fontColor=#000;strokeColor=#000000;" edge="1" parent="1" source="2" target="39">
                    <mxGeometry relative="1" as="geometry"/>
                </mxCell>
                <mxCell id="2" value="&lt;font style=&quot;font-size: 16px;&quot;&gt;构造函数A&lt;/font&gt;" style="rounded=1;whiteSpace=wrap;html=1;sketch=1;curveFitting=1;jiggle=2;glass=0;shadow=0;fontColor=#000;fillColor=#fff;strokeColor=#000;" vertex="1" parent="1">
                    <mxGeometry x="264" y="520" width="120" height="60" as="geometry"/>
                </mxCell>
                <mxCell id="8" style="edgeStyle=none;html=1;exitX=0;exitY=0.5;exitDx=0;exitDy=0;entryX=0.5;entryY=1;entryDx=0;entryDy=0;fontSize=16;fontColor=#000;strokeColor=#000;" edge="1" parent="1" source="3" target="5">
                    <mxGeometry relative="1" as="geometry"/>
                </mxCell>
                <mxCell id="3" value="实例a" style="ellipse;whiteSpace=wrap;html=1;aspect=fixed;rounded=1;shadow=0;glass=0;sketch=1;fontSize=16;fontColor=#000;strokeColor=#000;fillColor=#FFFFFF;" vertex="1" parent="1">
                    <mxGeometry x="284" y="685" width="80" height="80" as="geometry"/>
                </mxCell>
                <mxCell id="22" style="edgeStyle=none;html=1;exitX=0.5;exitY=0;exitDx=0;exitDy=0;entryX=0;entryY=1;entryDx=0;entryDy=0;fontSize=16;dashed=1;dashPattern=1 2;fontColor=#000;strokeColor=#000;" edge="1" parent="1" source="5" target="19">
                    <mxGeometry relative="1" as="geometry"/>
                </mxCell>
                <mxCell id="29" style="edgeStyle=none;html=1;exitX=1;exitY=1;exitDx=0;exitDy=0;entryX=0;entryY=1;entryDx=0;entryDy=0;fontSize=16;fontColor=#000;strokeColor=#3700CC;" edge="1" parent="1" source="5" target="2">
                    <mxGeometry relative="1" as="geometry">
                        <Array as="points">
                            <mxPoint x="150" y="600"/>
                            <mxPoint x="190" y="600"/>
                            <mxPoint x="210" y="600"/>
                            <mxPoint x="230" y="600"/>
                            <mxPoint x="240" y="590"/>
                        </Array>
                    </mxGeometry>
                </mxCell>
                <mxCell id="5" value="原型对象" style="ellipse;whiteSpace=wrap;html=1;rounded=1;shadow=0;glass=0;sketch=1;fontSize=16;fillColor=#FFF;fontColor=#000;strokeColor=#000000;" vertex="1" parent="1">
                    <mxGeometry x="10" y="510" width="120" height="80" as="geometry"/>
                </mxCell>
                <mxCell id="12" value="prototype" style="text;html=1;align=center;verticalAlign=middle;resizable=0;points=[];autosize=1;strokeColor=none;fillColor=none;fontSize=16;rounded=1;shadow=0;glass=0;sketch=1;fontColor=#000;" vertex="1" parent="1">
                    <mxGeometry x="150" y="510" width="90" height="30" as="geometry"/>
                </mxCell>
                <mxCell id="13" value="__proto__" style="text;html=1;align=center;verticalAlign=middle;resizable=0;points=[];autosize=1;strokeColor=none;fillColor=none;fontSize=16;rounded=1;shadow=0;glass=0;sketch=1;fontColor=#000;" vertex="1" parent="1">
                    <mxGeometry x="100" y="655" width="100" height="30" as="geometry"/>
                </mxCell>
                <mxCell id="14" style="edgeStyle=none;html=1;exitX=0.5;exitY=1;exitDx=0;exitDy=0;entryX=0.5;entryY=0;entryDx=0;entryDy=0;fontSize=16;fontColor=#000;strokeColor=#000;" edge="1" parent="1" source="16" target="18">
                    <mxGeometry relative="1" as="geometry">
                        <Array as="points">
                            <mxPoint x="564" y="350"/>
                            <mxPoint x="564" y="370"/>
                        </Array>
                    </mxGeometry>
                </mxCell>
                <mxCell id="15" style="edgeStyle=none;html=1;exitX=0;exitY=0.5;exitDx=0;exitDy=0;entryX=1;entryY=0.5;entryDx=0;entryDy=0;fontSize=16;fillColor=#0050ef;strokeColor=#001DBC;fontColor=#000;" edge="1" parent="1" source="16" target="19">
                    <mxGeometry relative="1" as="geometry">
                        <Array as="points">
                            <mxPoint x="430" y="260"/>
                            <mxPoint x="400" y="260"/>
                        </Array>
                    </mxGeometry>
                </mxCell>
                <mxCell id="37" style="edgeStyle=none;html=1;exitX=1;exitY=1;exitDx=0;exitDy=0;entryX=0.5;entryY=0;entryDx=0;entryDy=0;fontSize=16;fillColor=#6a00ff;strokeColor=#3700CC;fontColor=#000;" edge="1" parent="1" source="16" target="34">
                    <mxGeometry relative="1" as="geometry">
                        <Array as="points">
                            <mxPoint x="720" y="370"/>
                        </Array>
                    </mxGeometry>
                </mxCell>
                <mxCell id="59" style="edgeStyle=none;html=1;exitX=0.75;exitY=1;exitDx=0;exitDy=0;entryX=0.5;entryY=0;entryDx=0;entryDy=0;strokeColor=#000000;fontSize=16;fontColor=#000;" edge="1" parent="1" source="16" target="39">
                    <mxGeometry relative="1" as="geometry">
                        <Array as="points">
                            <mxPoint x="640" y="340"/>
                            <mxPoint x="650" y="390"/>
                        </Array>
                    </mxGeometry>
                </mxCell>
                <mxCell id="16" value="&lt;span style=&quot;font-size: 16px;&quot;&gt;Object&lt;/span&gt;" style="rounded=1;whiteSpace=wrap;html=1;sketch=1;curveFitting=1;jiggle=2;glass=0;shadow=0;fontColor=#000;strokeColor=#000;fillColor=#fff;" vertex="1" parent="1">
                    <mxGeometry x="504" y="230" width="120" height="60" as="geometry"/>
                </mxCell>
                <mxCell id="17" style="edgeStyle=none;html=1;exitX=0;exitY=0.5;exitDx=0;exitDy=0;entryX=0.663;entryY=0.998;entryDx=0;entryDy=0;fontSize=16;entryPerimeter=0;fontColor=#000;strokeColor=#000;" edge="1" parent="1" source="18" target="19">
                    <mxGeometry relative="1" as="geometry"/>
                </mxCell>
                <mxCell id="18" value="实例" style="ellipse;whiteSpace=wrap;html=1;aspect=fixed;rounded=1;shadow=0;glass=0;sketch=1;fontSize=16;fontColor=#000;strokeColor=#000000;fillColor=#FFFFFF;" vertex="1" parent="1">
                    <mxGeometry x="524" y="395" width="80" height="80" as="geometry"/>
                </mxCell>
                <mxCell id="32" style="edgeStyle=none;html=1;exitX=1;exitY=1;exitDx=0;exitDy=0;entryX=0;entryY=1;entryDx=0;entryDy=0;fontSize=16;fillColor=#6a00ff;strokeColor=#3700CC;fontColor=#000;" edge="1" parent="1" source="19" target="16">
                    <mxGeometry relative="1" as="geometry">
                        <Array as="points">
                            <mxPoint x="390" y="300"/>
                            <mxPoint x="430" y="300"/>
                            <mxPoint x="480" y="300"/>
                        </Array>
                    </mxGeometry>
                </mxCell>
                <mxCell id="19" value="原型对象" style="ellipse;whiteSpace=wrap;html=1;rounded=1;shadow=0;glass=0;sketch=1;fontSize=16;fontColor=#000;strokeColor=#000;fillColor=#fff;" vertex="1" parent="1">
                    <mxGeometry x="250" y="220" width="120" height="80" as="geometry"/>
                </mxCell>
                <mxCell id="20" value="prototype" style="text;html=1;align=center;verticalAlign=middle;resizable=0;points=[];autosize=1;strokeColor=none;fillColor=none;fontSize=16;rounded=1;shadow=0;glass=0;sketch=1;fontColor=#000;" vertex="1" parent="1">
                    <mxGeometry x="400" y="220" width="90" height="30" as="geometry"/>
                </mxCell>
                <mxCell id="21" value="__proto__" style="text;html=1;align=center;verticalAlign=middle;resizable=0;points=[];autosize=1;strokeColor=none;fillColor=none;fontSize=16;rounded=1;shadow=0;glass=0;sketch=1;fontColor=#000;" vertex="1" parent="1">
                    <mxGeometry x="370" y="380" width="100" height="30" as="geometry"/>
                </mxCell>
                <mxCell id="23" value="__proto__" style="text;html=1;align=center;verticalAlign=middle;resizable=0;points=[];autosize=1;strokeColor=none;fillColor=none;fontSize=16;rounded=1;shadow=0;glass=0;sketch=1;fontColor=#000;" vertex="1" parent="1">
                    <mxGeometry x="100" y="380" width="100" height="30" as="geometry"/>
                </mxCell>
                <mxCell id="25" value="null" style="ellipse;whiteSpace=wrap;html=1;rounded=1;shadow=0;glass=0;sketch=1;fontSize=16;fontColor=#000;fillColor=#fff;strokeColor=#000000;" vertex="1" parent="1">
                    <mxGeometry x="504" y="30" width="120" height="80" as="geometry"/>
                </mxCell>
                <mxCell id="27" style="edgeStyle=none;html=1;entryX=0.5;entryY=1;entryDx=0;entryDy=0;fontSize=16;fontColor=#000;strokeColor=#000;exitX=0.606;exitY=-0.062;exitDx=0;exitDy=0;exitPerimeter=0;" edge="1" parent="1" source="19" target="25">
                    <mxGeometry relative="1" as="geometry">
                        <mxPoint x="564" y="220" as="sourcePoint"/>
                        <mxPoint x="574" y="405" as="targetPoint"/>
                        <Array as="points"/>
                    </mxGeometry>
                </mxCell>
                <mxCell id="28" value="__proto__" style="text;html=1;align=center;verticalAlign=middle;resizable=0;points=[];autosize=1;strokeColor=none;fillColor=none;fontSize=16;rounded=1;shadow=0;glass=0;sketch=1;fontColor=#000;" vertex="1" parent="1">
                    <mxGeometry x="365" y="130" width="100" height="30" as="geometry"/>
                </mxCell>
                <mxCell id="30" value="constructor" style="text;html=1;align=center;verticalAlign=middle;resizable=0;points=[];autosize=1;strokeColor=none;fillColor=none;fontSize=16;rounded=1;shadow=0;glass=0;sketch=1;fontColor=#000;" vertex="1" parent="1">
                    <mxGeometry x="145" y="560" width="100" height="30" as="geometry"/>
                </mxCell>
                <mxCell id="33" value="constructor" style="text;html=1;align=center;verticalAlign=middle;resizable=0;points=[];autosize=1;strokeColor=none;fillColor=none;fontSize=16;rounded=1;shadow=0;glass=0;sketch=1;fontColor=#000;" vertex="1" parent="1">
                    <mxGeometry x="390" y="300" width="100" height="30" as="geometry"/>
                </mxCell>
                <mxCell id="41" style="edgeStyle=none;html=1;exitX=0.5;exitY=1;exitDx=0;exitDy=0;entryX=0.5;entryY=0;entryDx=0;entryDy=0;fontSize=16;fontColor=#000;strokeColor=#000000;" edge="1" parent="1" source="34" target="40">
                    <mxGeometry relative="1" as="geometry">
                        <Array as="points">
                            <mxPoint x="887" y="630"/>
                        </Array>
                    </mxGeometry>
                </mxCell>
                <mxCell id="42" style="edgeStyle=none;html=1;exitX=0;exitY=0.5;exitDx=0;exitDy=0;entryX=1;entryY=0.5;entryDx=0;entryDy=0;fontSize=16;fillColor=#0050ef;strokeColor=#001DBC;fontColor=#000;" edge="1" parent="1" source="34" target="39">
                    <mxGeometry relative="1" as="geometry">
                        <Array as="points">
                            <mxPoint x="780" y="560"/>
                        </Array>
                    </mxGeometry>
                </mxCell>
                <mxCell id="46" style="edgeStyle=none;html=1;exitX=1;exitY=0.25;exitDx=0;exitDy=0;fontSize=16;entryX=1;entryY=0.75;entryDx=0;entryDy=0;fillColor=#6a00ff;strokeColor=#3700CC;fontColor=#000;" edge="1" parent="1" source="34" target="34">
                    <mxGeometry relative="1" as="geometry">
                        <mxPoint x="1020" y="570" as="targetPoint"/>
                        <Array as="points">
                            <mxPoint x="980" y="545"/>
                            <mxPoint x="1000" y="545"/>
                            <mxPoint x="1000" y="575"/>
                        </Array>
                    </mxGeometry>
                </mxCell>
                <mxCell id="54" style="edgeStyle=none;html=1;exitX=0;exitY=0.75;exitDx=0;exitDy=0;entryX=1;entryY=1;entryDx=0;entryDy=0;fontSize=16;fontColor=#000;strokeColor=#000000;" edge="1" parent="1" source="34" target="39">
                    <mxGeometry relative="1" as="geometry"/>
                </mxCell>
                <mxCell id="34" value="&lt;font style=&quot;font-size: 16px;&quot;&gt;Function&lt;/font&gt;" style="rounded=1;whiteSpace=wrap;html=1;sketch=1;curveFitting=1;jiggle=2;glass=0;shadow=0;fontColor=#000;fillColor=#fff;strokeColor=#000000;" vertex="1" parent="1">
                    <mxGeometry x="827" y="530" width="120" height="60" as="geometry"/>
                </mxCell>
                <mxCell id="36" value="constructor" style="text;html=1;align=center;verticalAlign=middle;resizable=0;points=[];autosize=1;strokeColor=none;fillColor=none;fontSize=16;rounded=1;shadow=0;glass=0;sketch=1;fontColor=#000;" vertex="1" parent="1">
                    <mxGeometry x="384" y="620" width="100" height="30" as="geometry"/>
                </mxCell>
                <mxCell id="38" value="constructor" style="text;html=1;align=center;verticalAlign=middle;resizable=0;points=[];autosize=1;strokeColor=none;fillColor=none;fontSize=16;rounded=1;shadow=0;glass=0;sketch=1;fontColor=#000;" vertex="1" parent="1">
                    <mxGeometry x="670" y="310" width="100" height="30" as="geometry"/>
                </mxCell>
                <mxCell id="44" style="edgeStyle=none;html=1;exitX=0;exitY=0.5;exitDx=0;exitDy=0;fontSize=16;entryX=0.389;entryY=1.016;entryDx=0;entryDy=0;entryPerimeter=0;fontColor=#000;strokeColor=#000000;" edge="1" parent="1" source="39" target="19">
                    <mxGeometry relative="1" as="geometry">
                        <mxPoint x="290" y="420" as="targetPoint"/>
                        <Array as="points">
                            <mxPoint x="400" y="450"/>
                        </Array>
                    </mxGeometry>
                </mxCell>
                <mxCell id="61" style="edgeStyle=none;html=1;entryX=0;entryY=1;entryDx=0;entryDy=0;strokeColor=#3700CC;fontSize=16;fontColor=#000;exitX=0.725;exitY=0.983;exitDx=0;exitDy=0;exitPerimeter=0;" edge="1" parent="1" source="39" target="34">
                    <mxGeometry relative="1" as="geometry">
                        <Array as="points">
                            <mxPoint x="720" y="610"/>
                            <mxPoint x="760" y="610"/>
                            <mxPoint x="800" y="610"/>
                        </Array>
                    </mxGeometry>
                </mxCell>
                <mxCell id="39" value="Function.prototype" style="ellipse;whiteSpace=wrap;html=1;rounded=1;shadow=0;glass=0;sketch=1;fontSize=16;fontColor=#000;fillColor=#fff;strokeColor=#000000;" vertex="1" parent="1">
                    <mxGeometry x="570" y="520" width="170" height="80" as="geometry"/>
                </mxCell>
                <mxCell id="49" style="edgeStyle=none;html=1;exitX=0;exitY=0.5;exitDx=0;exitDy=0;entryX=0.5;entryY=1;entryDx=0;entryDy=0;fontSize=16;fontColor=#000;strokeColor=#000000;" edge="1" parent="1" source="40" target="39">
                    <mxGeometry relative="1" as="geometry">
                        <Array as="points">
                            <mxPoint x="750" y="660"/>
                        </Array>
                    </mxGeometry>
                </mxCell>
                <mxCell id="40" value="实例" style="ellipse;whiteSpace=wrap;html=1;aspect=fixed;rounded=1;shadow=0;glass=0;sketch=1;fontSize=16;fontColor=#000;fillColor=#FFFFFF;strokeColor=#000000;" vertex="1" parent="1">
                    <mxGeometry x="847" y="685" width="80" height="80" as="geometry"/>
                </mxCell>
                <mxCell id="43" value="prototype" style="text;html=1;align=center;verticalAlign=middle;resizable=0;points=[];autosize=1;strokeColor=none;fillColor=none;fontSize=16;rounded=1;shadow=0;glass=0;sketch=1;fontColor=#000;" vertex="1" parent="1">
                    <mxGeometry x="740" y="520" width="90" height="30" as="geometry"/>
                </mxCell>
                <mxCell id="45" value="__proto__" style="text;html=1;align=center;verticalAlign=middle;resizable=0;points=[];autosize=1;strokeColor=none;fillColor=none;fontSize=16;rounded=1;shadow=0;glass=0;sketch=1;fontColor=#000;" vertex="1" parent="1">
                    <mxGeometry x="470" y="500" width="100" height="30" as="geometry"/>
                </mxCell>
                <mxCell id="47" value="constructor" style="text;html=1;align=center;verticalAlign=middle;resizable=0;points=[];autosize=1;strokeColor=none;fillColor=none;fontSize=16;rounded=1;shadow=0;glass=0;sketch=1;fontColor=#000;" vertex="1" parent="1">
                    <mxGeometry x="1000" y="545" width="100" height="30" as="geometry"/>
                </mxCell>
                <mxCell id="48" value="new" style="text;html=1;align=center;verticalAlign=middle;resizable=0;points=[];autosize=1;strokeColor=none;fillColor=none;fontSize=16;rounded=1;shadow=0;glass=0;sketch=1;fontColor=#000;" vertex="1" parent="1">
                    <mxGeometry x="315" y="630" width="50" height="30" as="geometry"/>
                </mxCell>
                <mxCell id="50" value="__proto__" style="text;html=1;align=center;verticalAlign=middle;resizable=0;points=[];autosize=1;strokeColor=none;fillColor=none;fontSize=16;rounded=1;shadow=0;glass=0;sketch=1;fontColor=#000;" vertex="1" parent="1">
                    <mxGeometry x="720" y="685" width="100" height="30" as="geometry"/>
                </mxCell>
                <mxCell id="53" value="__proto__" style="text;html=1;align=center;verticalAlign=middle;resizable=0;points=[];autosize=1;strokeColor=none;fillColor=none;fontSize=16;rounded=1;shadow=0;glass=0;sketch=1;fontColor=#000;" vertex="1" parent="1">
                    <mxGeometry x="440" y="560" width="100" height="30" as="geometry"/>
                </mxCell>
                <mxCell id="55" value="__proto__" style="text;html=1;align=center;verticalAlign=middle;resizable=0;points=[];autosize=1;strokeColor=none;fillColor=none;fontSize=16;rounded=1;shadow=0;glass=0;sketch=1;fontColor=#000;" vertex="1" parent="1">
                    <mxGeometry x="727" y="555" width="100" height="30" as="geometry"/>
                </mxCell>
                <mxCell id="56" value="new" style="text;html=1;align=center;verticalAlign=middle;resizable=0;points=[];autosize=1;strokeColor=none;fillColor=none;fontSize=16;rounded=1;shadow=0;glass=0;sketch=1;fontColor=#000;" vertex="1" parent="1">
                    <mxGeometry x="560" y="320" width="50" height="30" as="geometry"/>
                </mxCell>
                <mxCell id="58" value="new" style="text;html=1;align=center;verticalAlign=middle;resizable=0;points=[];autosize=1;strokeColor=none;fillColor=none;fontSize=16;rounded=1;shadow=0;glass=0;sketch=1;fontColor=#000;" vertex="1" parent="1">
                    <mxGeometry x="890" y="630" width="50" height="30" as="geometry"/>
                </mxCell>
                <mxCell id="60" value="__proto__" style="text;html=1;align=center;verticalAlign=middle;resizable=0;points=[];autosize=1;strokeColor=none;fillColor=none;fontSize=16;rounded=1;shadow=0;glass=0;sketch=1;fontColor=#000;" vertex="1" parent="1">
                    <mxGeometry x="640" y="410" width="100" height="30" as="geometry"/>
                </mxCell>
                <mxCell id="63" value="constructor" style="text;html=1;align=center;verticalAlign=middle;resizable=0;points=[];autosize=1;strokeColor=none;fillColor=none;fontSize=16;rounded=1;shadow=0;glass=0;sketch=1;fontColor=#000;" vertex="1" parent="1">
                    <mxGeometry x="710" y="585" width="100" height="30" as="geometry"/>
                </mxCell>
            </root>
        </mxGraphModel>
    </diagram>
</mxfile>